<?xml version="1.0" encoding="UTF-8"?>
<svg xmlns="http://www.w3.org/2000/svg" width="264" height="162" viewBox="0 0 264 162">
    <path fill="#fff" d="M.059 162l264-.5V.5h-264z"/>
    <path fill="#e5e5e5" d="M264.059 0v1h-107v151.03l8 6V42.008h40v112.021l3.3-2.8.6-.5.6.4 6.5 4.6V42.009h47.06v1h.816v110.263l-1.678-1.273L248.294 162l-12.783-10.002L222.728 162l-5.669-4.275v.004l-8.1-5.7-4.9 4.2V43.01h-38v116.92l-10-7.402V0z"/>
    <path fill="#e5e5e5" d="M166.059 159.9V43h38v113.2l-7.6 5.8-13.8-10-13.9 10z" class="st1"/>
    <path fill="#e5e5e5" d="M264.059 25.2V151h-99V25.2z"/>
    <path fill="#e5e5e5" d="M187.559 5h-26v6h26zM211.559 5h-22v6h22zM261.56 5h-47v6h47z" class="st1"/>
    <path fill="#e5e5e5" stroke="#e5e5e5" stroke-width=".998" d="M262.496 14.499h-104" class="st2"/>
    <path fill="#a2a9b1" fill-opacity=".933" d="M241.15 96.051l-14.726-14.726-9.817 4.909-14.726-14.726-19.634 24.543zm9.817-53.995v63.812H172.43V42.056z" class="st3"/>
    <path fill="#fff" stroke="#36c" stroke-width="1.651" d="M249.959 111.1h-76.4v13.7h76.4z" class="st4"/>
    <path fill="#36c" stroke="#36c" stroke-width="1.899" d="M249.889 131.3h-18.2V142h18.2z" class="st5"/>
    <path fill="#e5e5e5" stroke="#36c" stroke-width="1.651" d="M225.789 131.5h-18.1v10.6h18.1z" class="st6"/>
    <path fill="#36c" stroke="#a2a9b1" stroke-width="1.8" d="M244.459 118.5h-63v.4h63z" class="st7"/>
    <path fill="#36c" stroke="#fff" stroke-width="1.027" d="M246.089 136.3h-10.9v.8h10.9z" class="st8"/>
    <path fill="#36c" stroke="#36c" stroke-width="1.027" d="M222.089 136.5h-10.9v.8h10.9z" class="st9"/>
    <path fill="#e5e5e5" d="M216.059 150.7v5l-7.1-4.9zM204.059 151l-.2 4.6 5.1-4.8z" class="st1"/>
    <path fill="#e5e5e5" d="M144.059 0v152l-13.114 10-11.254-10-13.604 10-9.98-8.4V43H1.059v-1h96.026v111.1l9.1 7.7 13.016-9.599.587-.5.587.5 10.667 9.5 12.038-9.2V1H1.059V0z"/>
    <path fill="#e5e5e5" d="M103.602 25.201v125.8h-9v2.599L92.5 152l-12.6 10-13.798-10-14.201 10-13-10-13 10-13.799-10L0 162l.059-1.617V25.201z"/>
    <path fill="#e5e5e5" d="M136.601 36.413c0-7.7-6.3-14-14-14s-14 6.3-14 14 6.3 14 14 14 14-6.3 14-14zM5.059 6v4h92V6h-92m-1-1h94v6h-94zM134.601 5h-22v6h22z" class="st1"/>
    <path fill="#e5e5e5" stroke="#e5e5e5" stroke-width=".998" d="M142.059 14.5h-141" class="st2"/>
    <path fill="#e5e5e5" d="M134.602 54.412v96.44l.012 7.474-4.414 3.404-11.155-9.742-9.44 6.463v-6.838h-.003v-97.2h25z"/>
    <path fill="#36c" d="M168.946 84.747h-39.624v15.879l-28.261-23.891 28.261-23.891v15.879h22.58s6.118-.729 11.8 4.37c5.68 5.098 5.244 11.654 5.244 11.654zM86.692 96.464L71.966 81.738l-9.817 4.909L47.423 71.92 27.79 96.464zm9.817-53.995v63.812H17.972V42.47z" class="st3"/>
    <path fill="#fff" stroke="#36c" stroke-width="1.651" d="M95.501 111.513h-76.4v13.7h76.4z" class="st4"/>
    <path fill="#36c" stroke="#36c" stroke-width="1.899" d="M95.431 131.713h-18.2v10.7h18.2z" class="st5"/>
    <path fill="#e5e5e5" stroke="#36c" stroke-width="1.651" d="M71.331 131.913h-18.1v10.6h18.1z" class="st6"/>
    <path fill="#36c" stroke="#a2a9b1" stroke-width="1.8" d="M90.001 118.913h-63v.4h63z" class="st7"/>
    <path fill="#36c" stroke="#fff" stroke-width="1.027" d="M91.631 136.713h-10.9v.8h10.9z" class="st8"/>
    <path fill="#36c" stroke="#36c" stroke-width="1.027" d="M67.631 136.913h-10.9v.8h10.9z" class="st9"/>
    <path fill="#e5e5e5" fill-rule="evenodd" d="M103.629 149.798l-.02 10.196-14.519-10.208z"/>
    <path fill="#e5e5e5" stroke="#e5e5e5" stroke-width=".874" d="M263.609 0l-.1 152" class="st2"/>
    <path fill="#e5e5e5" stroke="#e5e5e5" stroke-width=".901" d="M.609 0l-.1 162" class="st2"/>
    <path fill="#e5e5e5" stroke="#e5e5e5" stroke-width="1.003" d="M226.059.499h-105" class="st2"/>
</svg>
